<!-- icon666.com - MILLIONS vector ICONS FREE --><svg version="1.1" id="Capa_1" xmlns="http://www.w3.org/2000/svg" xmlns:xlink="http://www.w3.org/1999/xlink" x="0px" y="0px" viewBox="0 0 511.999 511.999" style="enable-background:new 0 0 511.999 511.999;" xml:space="preserve"><path style="fill:#E23B3B;" d="M347.353,319.234l-6.936-2.408l-25.49,57.152l-7.836,18.591l7.836,5.511l5.562,1.777 c4.173,1.334,8.523,2.01,12.932,2.01c23.427,0,42.486-19.059,42.486-42.486C375.908,341.298,364.434,325.163,347.353,319.234z"></path><path style="fill:#FBB03B;" d="M417.99,145.344l-1.996-3.515c-32.529-57.269-93.663-92.845-159.547-92.845 c-65.938,0-127.074,35.578-159.549,92.852l-1.992,3.514l19.786,44.362l12.298,26.825V320.94c0,10.015,7.772,18.556,17.781,18.935 c10.522,0.398,19.207-8.046,19.207-18.481v-23.618l86.653,196.628c2.233,5.067,9.418,5.083,11.673,0.026l13.593-30.476 l11.041-24.289v5.269c0,7.795,5.978,14.513,13.765,14.898c8.323,0.411,15.226-6.242,15.226-14.477v-67.919l14.278-35.258 l21.727-48.719c2.62,7.546,9.997,12.886,18.524,12.413c9.873-0.548,17.446-9.034,17.446-18.923v-74.043l14.302-32.17L417.99,145.344 z"></path><g><path style="fill:#7AAB02;" d="M252.037,454.416L252.037,454.416c-2.606-7.002-10.395-10.566-17.396-7.96l-3.702,1.378 c-0.241,0.09-0.467,0.2-0.699,0.301l10.914,24.766l2.924-1.088C251.08,469.207,254.643,461.419,252.037,454.416z"></path><path style="fill:#7AAB02;" d="M197.476,312.907c-1.661-3.713-6.018-5.376-9.731-3.715l-15.651,7.003l9.42,21.374l15.771-7.057 c3.713-1.661,5.376-6.018,3.715-9.731L197.476,312.907z"></path></g><path style="fill:#F7931E;" d="M287.601,280.509v165.076c0,7.863,6.375,14.238,14.239,14.238l0,0 c7.863,0,14.238-6.375,14.238-14.238V280.509H287.601z"></path><path style="fill:#F97E19;" d="M301.689,447.484V282.408h14.389v-1.899h-28.478v165.076c0,7.863,6.375,14.238,14.239,14.238 c1.915,0,3.74-0.384,5.408-1.07C303.872,456.149,301.689,452.077,301.689,447.484z"></path><g><path style="fill:#E23B3B;" d="M185.8,347.295l8.237-2.822c5.002-1.714,10.193-2.583,15.426-2.583 c26.182,0,47.485,21.302,47.485,47.485c0,17.409-9.486,33.388-24.758,41.702l-7.636,4.158L185.8,347.295z"></path><path style="fill:#E23B3B;" d="M282.589,317.896c-19.569,0-35.488-15.92-35.488-35.488s15.92-35.488,35.488-35.488 c19.569,0,35.488,15.92,35.488,35.488S302.158,317.896,282.589,317.896z"></path></g><path style="fill:#F7931E;" d="M313.936,228.9c0,9.974,9.571,18.059,21.378,18.059c6.939,0,13.088-2.805,16.993-7.133l-0.363,53.657 c2.627,7.532,9.997,12.86,18.515,12.388c9.873-0.547,17.446-9.034,17.446-18.923v-74.043l1.029-2.314l0.154-87.338l-74.991-33.783 L313.936,228.9z"></path><g><path style="fill:#F97E19;" d="M330.601,228.9l0.153-131.926l-16.657-7.504l-0.162,139.43c0,9.974,9.571,18.059,21.378,18.059 c2.954,0,5.762-0.513,8.317-1.431C335.973,242.782,330.601,236.372,330.601,228.9z"></path><path style="fill:#F97E19;" d="M368.608,293.483l0.363-188.612c-3.853,4.269-9.89,7.051-16.714,7.126l-0.315,181.487 c2.627,7.532,9.997,12.86,18.515,12.388c2.611-0.145,5.054-0.858,7.247-1.992C373.483,301.725,370.187,298.007,368.608,293.483z"></path></g><path style="fill:#F7931E;" d="M126.964,117.985v98.496l0.026,0.056V320.94c0,2.504,0.486,4.915,1.371,7.131 c0.443,1.108,0.985,2.166,1.616,3.162c0.632,0.996,1.352,1.93,2.15,2.789c1.198,1.288,2.571,2.406,4.085,3.312 c1.514,0.905,3.166,1.596,4.921,2.03c0.585,0.145,1.182,0.261,1.788,0.347c0.607,0.086,1.224,0.141,1.849,0.165 c3.946,0.149,7.633-0.945,10.701-2.921c5.113-3.294,8.506-9.038,8.506-15.559v-50.165c0,10.445,8.653,18.869,19.182,18.495 c10.029-0.357,17.832-8.903,17.832-18.939V94.274L126.964,117.985z"></path><g><path style="fill:#F97E19;" d="M149.958,331.234c-0.632-0.996-1.174-2.054-1.616-3.162c-0.885-2.215-1.371-4.626-1.371-7.131 V177.986h-19.981v142.955c0,2.504,0.486,4.915,1.371,7.131c0.443,1.108,0.985,2.166,1.616,3.162c0.632,0.996,1.352,1.93,2.15,2.789 c1.198,1.288,2.571,2.406,4.085,3.312c1.514,0.905,3.166,1.596,4.921,2.03c0.585,0.145,1.182,0.261,1.788,0.347 c0.607,0.086,1.224,0.141,1.849,0.165c3.946,0.149,7.633-0.945,10.701-2.921c0.023-0.015,0.044-0.031,0.066-0.045 c-1.254-0.824-2.408-1.789-3.429-2.887C151.31,333.163,150.589,332.23,149.958,331.234z"></path><path style="fill:#F97E19;" d="M163.977,113.64v157.591c0,10.445,8.653,18.869,19.182,18.495c2.797-0.099,5.409-0.855,7.739-2.082 c-0.635-0.521-1.243-1.074-1.802-1.675c-0.799-0.859-1.52-1.792-2.15-2.789c-0.631-0.997-1.174-2.054-1.616-3.162 c-0.885-2.215-1.371-4.626-1.371-7.131V103.537L163.977,113.64z"></path></g><path style="fill:#BF1616;" d="M256.447,98.443c59.108,0,114.377,28.649,148.614,75.893l12.93-28.994l-1.996-3.515 c-32.529-57.268-93.663-92.844-159.547-92.844c-65.938,0-127.074,35.578-159.549,92.852l-1.992,3.514l12.923,28.976 C142.028,127.088,197.297,98.443,256.447,98.443z"></path><path style="fill:#E23B3B;" d="M114.692,189.711L94.907,145.35l1.992-3.514c6.875-12.126,15.159-23.485,24.62-33.762l3.34-3.626 l4.739,1.354c20.242,5.779,34.38,24.551,34.38,45.65c0,22.901-16.31,42.532-38.782,46.679l-6.126,1.131L114.692,189.711z"></path><path style="fill:#FCC062;" d="M72.4,171.917c-1.834,0-3.648-0.291-5.39-0.864l-7.917-2.602c-4.657-1.532-8.344-4.831-10.379-9.293 c-2.027-4.444-2.106-9.366-0.221-13.861C83.733,61.283,165.36,6.998,256.447,6.998c89.992,0,171.238,53.379,206.983,135.987 c1.927,4.455,1.91,9.36-0.046,13.813c-1.966,4.473-5.591,7.818-10.206,9.422l-7.869,2.733c-1.828,0.635-3.734,0.957-5.667,0.957 c-6.91,0-13.149-4.069-15.895-10.367c-29.033-66.553-94.701-109.558-167.3-109.558c-73.473,0-139.45,43.733-168.083,111.415 C85.661,167.788,79.395,171.917,72.4,171.917z"></path><g><path style="fill:#7AAB02;" d="M246.472,230.9l-21.382-12.345c-3.523-2.033-4.729-6.538-2.696-10.061l4.314-7.472 c2.033-3.523,6.538-4.729,10.061-2.696l21.382,12.345c3.523,2.033,4.729,6.538,2.696,10.061l-4.314,7.472 C254.5,231.726,249.995,232.933,246.472,230.9z"></path><path style="fill:#7AAB02;" d="M298.871,351.771l-19.441,15.22c-3.203,2.507-7.831,1.943-10.34-1.259l-5.318-6.794 c-2.507-3.203-1.943-7.831,1.259-10.34l19.441-15.22c3.203-2.507,7.831-1.943,10.34,1.259l5.318,6.794 C302.638,344.635,302.074,349.264,298.871,351.771z"></path></g><path style="fill:#E23B3B;" d="M268.443,187.939c-26.182,0-47.485-21.302-47.485-47.485s21.302-47.485,47.485-47.485 s47.484,21.302,47.484,47.485S294.626,187.939,268.443,187.939z"></path><path d="M268.443,85.972c-30.042,0-54.482,24.441-54.482,54.482s24.44,54.482,54.482,54.482s54.482-24.441,54.482-54.482 S298.485,85.972,268.443,85.972z M268.443,179.941c-21.773,0-39.487-17.714-39.487-39.487s17.714-39.487,39.487-39.487 s39.487,17.714,39.487,39.487S290.217,179.941,268.443,179.941z"></path><path d="M283.107,239.922c-23.427,0-42.486,19.059-42.486,42.486s19.059,42.486,42.486,42.486s42.486-19.059,42.486-42.486 S306.534,239.922,283.107,239.922z M283.107,309.899c-15.158,0-27.491-12.332-27.491-27.491s12.333-27.491,27.491-27.491 s27.491,12.332,27.491,27.491S298.265,309.899,283.107,309.899z"></path><path d="M469.852,140.205C432.999,55.034,349.233,0,256.447,0C162.533,0,78.374,55.97,42.041,142.59 c-2.611,6.226-2.499,13.324,0.308,19.475c2.814,6.167,8.121,10.918,14.56,13.035l7.917,2.602c2.479,0.815,5.012,1.203,7.514,1.203 c9.534,0,18.603-5.642,22.47-14.78c0.13-0.308,0.267-0.613,0.399-0.92l13.091,29.351l11.693,25.51v103.329 c0,14.056,11.435,25.492,25.492,25.492c11.545,0,21.316-7.717,24.441-18.262l9.927,22.525c0.007,0.015,0.014,0.031,0.02,0.046 l68.577,155.61c1.405,3.155,4.546,5.193,7.999,5.193c3.454,0,6.595-2.039,7.997-5.19l17.843-40.008l3.214-7.07 c3.936,4.358,9.61,7.117,15.931,7.117c11.851,0,21.493-9.642,21.493-21.493V407.74c3.426,0.741,6.932,1.127,10.497,1.127 c27.285,0,49.484-22.199,49.484-49.484c0-20.775-13.1-39.163-32.057-46.312l2.593-5.815c4.374,3.525,9.927,5.642,15.968,5.642 c14.056,0,25.492-11.435,25.492-25.492v-73.113l22.809-51.142c5.299,11.014,18.244,16.456,29.894,12.412l7.869-2.733 c6.381-2.215,11.599-7.033,14.316-13.218C472.5,153.449,472.522,146.374,469.852,140.205z M123.743,190.265l-1.781-3.887 l-18.107-40.599c6.665-11.753,14.588-22.559,23.547-32.289c16.77,4.787,28.578,20.175,28.578,37.96 C155.98,170.636,142.308,186.839,123.743,190.265z M196.629,352.037c4.11-1.409,8.451-2.151,12.833-2.151 c21.773,0,39.487,17.714,39.487,39.487c0,14.646-8.049,27.854-20.584,34.679L196.629,352.037z M367.911,359.383 c0,19.017-15.472,34.489-34.489,34.489c-3.605,0-7.122-0.552-10.497-1.63v-16.56l21.805-48.892 C358.395,331.533,367.911,344.593,367.911,359.383z M455.845,154.043c-1.134,2.253-3.202,3.897-5.584,4.724l-7.576,2.631 c-4.581,1.589-9.679-0.629-11.607-5.052c-13.313-30.518-34.006-56.292-59.45-75.6c-2.976-2.259-7.176-1.941-9.818,0.701l0,0 c-3.223,3.223-2.843,8.536,0.788,11.292c18.664,14.171,34.556,32.113,46.442,53.04l-14.138,31.701v-14.218 c0-4.106-3.164-7.685-7.268-7.808c-4.246-0.127-7.727,3.277-7.727,7.495v124.153c0,5.463-4.047,10.245-9.486,10.757 c-6.241,0.587-11.507-4.328-11.507-10.449v-77.661c0-4.106-3.164-7.686-7.268-7.808c-4.246-0.127-7.728,3.277-7.728,7.495v16.688 c0,5.463-4.047,10.245-9.486,10.756c-6.241,0.587-11.507-4.328-11.507-10.449v-36.674c0-4.106-3.164-7.686-7.268-7.808 c-4.246-0.127-7.727,3.277-7.727,7.495v36.41c0,13.574,10.377,25.201,23.926,26.023c4.316,0.262,8.415-0.568,12.062-2.223v37.757 c0,1.279,0.097,2.534,0.28,3.763l-21.296,47.751c-0.251-4.051-3.709-7.233-7.87-7.019c-4.034,0.208-7.101,3.744-7.101,7.782v32.805 l-0.11,0.247l0.11,0.049v72.341c0,3.302-2.367,6.249-5.642,6.67c-3.963,0.509-7.354-2.578-7.354-6.443v-51.669 c0-4.106-3.164-7.685-7.268-7.808c-4.246-0.127-7.727,3.277-7.727,7.495v42.362l-11.324,24.91l-12.134,27.206l-22.053-50.042 c17.933-9.23,29.516-27.8,29.516-48.436c0-30.041-24.44-54.482-54.482-54.482c-6.465,0-12.87,1.179-18.892,3.4l-19.151-43.457 c3.272,1.41,6.895,2.156,10.699,2.061c13.922-0.348,24.845-12.146,24.845-26.072v-54.078c0-4.106-3.164-7.685-7.268-7.808 c-4.246-0.127-7.727,3.277-7.727,7.495v54.675c0,5.463-4.047,10.245-9.486,10.757c-6.241,0.587-11.507-4.328-11.507-10.449v-17.18 c0-4.106-3.164-7.686-7.268-7.808c-4.246-0.127-7.727,3.277-7.727,7.495v67.171c0,5.463-4.047,10.245-9.486,10.757 c-6.241,0.587-11.507-4.328-11.507-10.449V216.43c0-1.079-0.233-2.145-0.683-3.126l-4.167-9.089 c23.744-6.089,40.837-27.569,40.837-52.764c0-21.741-12.802-40.883-31.822-49.561c31.555-28.369,73.001-44.909,117.294-44.909 c24.07,0,47.348,4.917,68.662,13.983c2.82,1.2,6.083,0.582,8.25-1.585l0,0c3.776-3.776,2.491-10.14-2.424-12.228 c-23.124-9.831-48.375-15.165-74.488-15.165c-76.694,0-145.561,45.649-175.449,116.295c-1.864,4.408-6.918,6.678-11.49,5.174 l-7.636-2.509c-2.47-0.812-4.607-2.508-5.756-4.84c-1.213-2.458-1.299-5.212-0.249-7.716 C89.858,67.356,168.591,14.995,256.447,14.995c86.802,0,165.166,51.485,199.644,131.165 C457.192,148.706,457.109,151.529,455.845,154.043z"></path></svg>